<?xml version="1.0" encoding="utf-8"?>
<!-- Generator: Adobe Illustrator 23.0.1, SVG Export Plug-In . SVG Version: 6.00 Build 0)  -->
<svg version="1.1" id="Layer_1" xmlns="http://www.w3.org/2000/svg" xmlns:xlink="http://www.w3.org/1999/xlink" x="0px" y="0px"
	 viewBox="0 0 76.7 71.3" style="enable-background:new 0 0 76.7 71.3;" xml:space="preserve">
<style type="text/css">
	.st0{fill:#212121;}
</style>
<g>
	<g>
		<g>
			<g>
				<g>
					<path class="st0" d="M31.8,71.1H2.9c-0.1,0-0.3-0.1-0.3-0.3s0.1-0.3,0.3-0.3h28.9c0.1,0,0.3,0.1,0.3,0.3S32,71.1,31.8,71.1z"/>
				</g>
			</g>
		</g>
		<g>
			<g>
				<g>
					<path class="st0" d="M73.5,71.1H56.4c-0.1,0-0.3-0.1-0.3-0.3s0.1-0.3,0.3-0.3h17.1c0.1,0,0.3,0.1,0.3,0.3S73.6,71.1,73.5,71.1z
						"/>
				</g>
			</g>
		</g>
		<g id="Trip_Stories_16_">
			<g>
				<g>
					<g>
						<g>
							<g>
								<g>
									<path class="st0" d="M65.1,51.1c-0.8,0-1.6,0.1-2.4,0.3L62,49.9L61.9,50c-0.1,0-0.2,0.1-0.3,0.2l0.9,1.9l0.2-0.1
										c0.8-0.2,1.6-0.4,2.5-0.4c4.3,0,7.8,3.5,7.8,7.8s-3.5,7.8-7.8,7.8s-7.8-3.5-7.8-7.8c0-2.8,1.6-5.5,4.1-6.9l0.2-0.1
										l-0.8-1.8c-0.1,0.1-0.3,0.2-0.5,0.3l0.6,1.2c-2.5,1.5-4.2,4.3-4.2,7.2c0,4.6,3.8,8.4,8.4,8.4s8.4-3.8,8.4-8.4
										C73.4,54.8,69.7,51.1,65.1,51.1z"/>
								</g>
							</g>
						</g>
					</g>
					<g>
						<g>
							<g>
								<g>
									<path class="st0" d="M73.3,51.4c-0.2,0-0.4,0-0.7,0c0,0,0,0-0.1,0c2.2,2,3.5,4.8,3.5,7.9c0,6-4.9,10.9-10.9,10.9
										c-4.8,0-8.9-3.1-10.3-7.5c-0.1,0.1-0.2,0.3-0.4,0.4c1.6,4.4,5.8,7.6,10.8,7.6c6.3,0,11.5-5.1,11.5-11.5
										C76.5,56.3,75.3,53.5,73.3,51.4z"/>
								</g>
							</g>
						</g>
					</g>
				</g>
				<g>
					<g>
						<g>
							<g>
								<g>
									<path class="st0" d="M32.3,44.8c-0.2,0.1-0.5,0.3-0.8,0.4c-0.3,0.2-0.8,0.4-1.3,0.7c-0.9,0.5-1.9,0.7-3,0.7
										c-2.4,0-4.4-1.2-5.1-1.6L22,44.9c-0.3-0.2-1.6-0.3-4.7-0.5c-2.5-0.2-6.3-0.5-6.8-0.8c-0.1-0.7,0.1-3.3,0.3-3.9H12
										c4.8,0,7.5,0.2,8.7,0.4c-0.1-0.2-0.2-0.4-0.3-0.6c-1.3-0.2-3.7-0.4-8.5-0.4h-1.3c0,0-0.1,0-0.2,0.1
										C10,39.6,9.7,43,9.9,43.8c0.1,0.5,1.4,0.7,7.2,1.1c2,0.2,4.3,0.3,4.6,0.5c0,0,0.1,0,0.1,0.1c0.7,0.4,2.9,1.7,5.4,1.7
										c1.2,0,2.3-0.3,3.2-0.9c0.5-0.2,0.9-0.5,1.3-0.7c0.3-0.2,0.6-0.3,0.8-0.4C32.5,45.1,32.4,44.9,32.3,44.8z"/>
								</g>
							</g>
						</g>
					</g>
					<g>
						<g>
							<g>
								<g>
									<path class="st0" d="M25.9,42.2c-1.1-0.2-2.3-0.4-3.4-0.9c1,0.5,2.2,1,2.9,0.9C25.6,42.3,25.7,42.3,25.9,42.2z"/>
								</g>
							</g>
						</g>
					</g>
				</g>
				<g>
					<g>
						<g>
							<g>
								<g>
									<path class="st0" d="M3.9,55.6c-0.5,0-0.8-0.1-0.8-0.1l0,0l0,0c-0.1-0.1-0.2-0.2,0.8-5.6c1-5.3,6.2-6.5,6.3-6.5l0.1,0.5
										c0,0-4.8,1.1-5.9,6.1c-0.7,3.5-0.8,4.7-0.9,5.1c0.6,0.1,2.4,0.2,3.3-2.4c1.1-3.3,2-4.7,5.2-5c2.4-0.1,4.9-0.1,7.8,0.1
										c0.8,0,1.4,0.8,1.9,1.5c0.1,0.2,0.2,0.3,0.3,0.5c0.3,0.5,0.6,1,1,1.3l2.4-0.9l0.2,0.5l-2.8,1.1l-0.1-0.1
										c-0.4-0.4-0.8-1-1.2-1.6c-0.1-0.2-0.2-0.3-0.3-0.5c-0.4-0.6-0.9-1.2-1.5-1.3c-2.8-0.2-5.4-0.2-7.7-0.1
										c-3,0.2-3.7,1.4-4.7,4.6C6.5,55.2,4.9,55.6,3.9,55.6z"/>
								</g>
							</g>
						</g>
					</g>
				</g>
				<g>
					<g>
						<g>
							<g>
								<g>
									<path class="st0" d="M2.1,56.2L2.1,56.2c-0.1,0-0.3-0.1-0.3-0.3V44.8c0-0.1,0.1-0.3,0.3-0.3h5.1V45H2.4v8.7
										c0.2-0.3,0.4-0.6,0.8-0.6v0.5c-0.3,0-0.7,1.2-0.8,2.2C2.4,56.1,2.2,56.2,2.1,56.2z"/>
								</g>
							</g>
						</g>
					</g>
				</g>
				<g>
					<g>
						<g>
							<g>
								<g>
									<path class="st0" d="M2.1,49H0.8c0,0-0.8-0.2-0.8-1.7c0-1.4,0.6-1.8,0.7-1.8l0,0H2V46H0.9c-0.1,0.1-0.4,0.4-0.4,1.3
										c0,0.8,0.3,1.1,0.4,1.2H2L2.1,49L2.1,49z"/>
								</g>
							</g>
						</g>
					</g>
				</g>
				<g>
					<g>
						<g>
							<g>
								<g>
									<path class="st0" d="M11.1,43.2C11,43.2,11,43.2,11.1,43.2c-1-0.1-1.7-1.1-2-2.9C8.9,39,9,37.8,9,37.7s0.1-0.2,0.3-0.2
										s0.3,0.1,0.2,0.3c-0.1,1.3,0,4.7,1.5,4.9c0.1,0,0.2,0.1,0.2,0.3S11.2,43.2,11.1,43.2z"/>
								</g>
							</g>
						</g>
					</g>
				</g>
				<g>
					<g>
						<g>
							<g>
								<g>
									<path class="st0" d="M34.6,53.1h-2.2v-5.9h3.1c-0.1-0.2-0.1-0.4-0.2-0.6h-3.2c-0.1,0-0.3,0.1-0.3,0.3v6.5
										c0,0.1,0.1,0.3,0.3,0.3h2.4C34.5,53.5,34.6,53.3,34.6,53.1z"/>
								</g>
							</g>
						</g>
					</g>
				</g>
				<g>
					<g>
						<g>
							<g>
								<g>
									<path class="st0" d="M28.8,51.3c0.8,0,0.8-1.3,0-1.3S28,51.3,28.8,51.3L28.8,51.3z"/>
								</g>
							</g>
						</g>
					</g>
				</g>
				<g>
					<g>
						<g>
							<g>
								<g>
									<path class="st0" d="M22.4,54.3h-0.1L21.9,54c-0.1-0.1-0.3-0.3-0.4-0.5c0-0.1,0-0.2,0.1-0.3s0.2-0.1,0.3,0
										c0.3,0.2,0.5,0.5,0.8,0.7c0.1,0.1,0.1,0.3,0,0.4C22.5,54.2,22.5,54.3,22.4,54.3z"/>
								</g>
							</g>
						</g>
					</g>
				</g>
				<g>
					<g>
						<g>
							<g>
								<g>
									<path class="st0" d="M27.5,61h-3.1c-0.1,0-0.1,0-0.2-0.1s-0.1-0.1,0-0.2c0-0.4,0.1-0.8,0.1-1.3c0-2-0.7-3.8-2.1-5.3
										c-0.1-0.1-0.1-0.3,0-0.4c0.1-0.1,0.2-0.1,0.4,0l4.5,3.5c0.1,0.1,0.2,0.7,0.4,0.7c0.1,0,0.2-0.4,0.3-0.3
										c0.1,0.6,0.1,1.2,0.1,1.8c0,0.4,0,0.9-0.1,1.3C27.8,60.9,27.7,61,27.5,61z M24.7,60.5h2.5c0-0.3,0-0.7,0-1
										c0-0.5,0-1-0.1-1.5c-0.2,0-0.4-0.1-0.5-0.2l-2.9-2.3c0.7,1.2,1,2.6,1,4.1C24.8,59.8,24.8,60.1,24.7,60.5z"/>
								</g>
							</g>
						</g>
					</g>
				</g>
				<g>
					<g>
						<g>
							<g>
								<g>
									<path class="st0" d="M5.9,62.2H5.6c-0.1,0-0.2-0.1-0.3-0.2C5.1,61.2,5,60.3,5,59.5C5,53.1,10.1,48,16.5,48
										c1.8,0,3.5,0.4,5.1,1.2l-0.2,0.5c-1.5-0.7-3.1-1.1-4.8-1.1c-6,0-10.9,4.9-10.9,10.9c0,0.7,0,1.4,0.2,2.1
										C6.3,61,7,60.5,7.8,60.5h0.5c0-0.3,0-0.7,0-1c0-4.6,3.8-8.4,8.4-8.4c1.7,0,3.4,0.5,4.8,1.5c0-0.1,0-0.2,0.1-0.3
										c0.1-0.3,0.4-0.6,0.8-0.8l0.2,0.5c-0.2,0.1-0.4,0.2-0.5,0.4s-0.1,0.4,0,0.7c0,0.1,0,0.2-0.1,0.3s-0.2,0.1-0.3,0
										c-1.4-1.2-3.2-1.8-5-1.8c-4.3,0-7.8,3.5-7.8,7.8c0,0.4,0,0.8,0.1,1.3c0,0.1,0,0.1,0,0.2c0,0-0.1,0.1-0.2,0.1H7.7
										c-0.7,0-1.3,0.4-1.5,1C6.1,62.1,6,62.2,5.9,62.2z"/>
								</g>
							</g>
						</g>
					</g>
				</g>
				<g>
					<g>
						<g>
							<g>
								<g>
									<path class="st0" d="M28.3,58.4L28.3,58.4L28.3,58.4c-0.3,0-0.6-0.1-0.9-0.3l-5-3.7l0,0c-0.2-0.2-0.5-0.5-0.8-0.7
										c0,0,0,0-0.1-0.1c-0.2-0.4-0.2-0.8-0.1-1.2s0.4-0.7,0.8-0.9l6.3-2.5c0.1,0,0.3-0.1,0.5-0.1c0.7,0,1.3,0.4,1.5,1
										c0.3,0.9,0.6,2.4,0.4,4.1c-0.2,1.7-0.8,3-1.3,3.7C29.3,58.1,28.8,58.4,28.3,58.4z M22.7,54l5,3.6c0.1,0.1,0.3,0.1,0.5,0.1
										l0,0c0.3,0,0.6-0.1,0.7-0.4c0.4-0.7,1-1.9,1.2-3.5c0.1-1.6-0.1-3-0.4-3.9c-0.1-0.4-0.5-0.6-0.9-0.6c-0.1,0-0.2,0-0.3,0
										L22.4,52c-0.2,0.1-0.4,0.3-0.5,0.5s0,0.5,0,0.7C22.2,53.5,22.5,53.8,22.7,54z"/>
								</g>
							</g>
						</g>
					</g>
				</g>
				<g>
					<g>
						<g>
							<g>
								<g>
									<path class="st0" d="M16.5,70.9c-4.6,0-8.7-2.7-10.5-7c0-0.1,0-0.3,0.1-0.3s0.3,0,0.3,0c0.3,0.4,0.8,0.6,1.3,0.6h2.5
										c0.1,0,0.1,0,0.2,0.1c1.5,1.9,3.7,2.9,6.1,2.9s4.6-1.1,6.1-2.9c0,0,0.1-0.1,0.2-0.1h3.7c0.1,0,0.2,0,0.2,0.1s0,0.2,0,0.3
										C24.7,68.5,20.8,70.9,16.5,70.9z M6.9,64.6c1.9,3.5,5.5,5.7,9.5,5.7s7.5-2.1,9.5-5.5h-3.1c-1.6,1.9-3.9,3-6.4,3
										s-4.8-1.1-6.4-3H7.6C7.4,64.8,7.1,64.7,6.9,64.6z"/>
								</g>
							</g>
						</g>
					</g>
				</g>
				<g>
					<g>
						<g>
							<g>
								<g>
									<path class="st0" d="M52.3,49.7c-0.5-0.8-1.5-1.3-2.4-1.3h-1.1c-0.1,0-0.3,0.1-0.3,0.3v1.4c0,0.1,0.1,0.3,0.3,0.3h1.1
										c0.3,0,0.6,0.1,0.8,0.4c0.2,0.2,0.2,0.6,0.1,0.9l-3.6,9.2c-0.1,0.4-0.6,0.7-1,0.7h-7.7c-0.1,0-0.2,0.1-0.3,0.1
										c-0.8,0.2-1.5,0.1-2.2-0.1h-4.3c-0.3-0.7-1.1-1.2-1.9-1.2H7.7c-0.8,0-1.6,0.5-2,1.2H2.1c-0.1,0-0.3,0.1-0.3,0.3v1.4
										c0,0.1,0.1,0.3,0.3,0.3h3.6C5.8,63.7,5.9,63.9,6,64c0.4,0.5,1,0.8,1.7,0.8h22.1c0.8,0,1.6-0.4,1.9-1.2h14.5
										c1.3,0,2.4-0.8,2.8-2l3.6-9.2C53,51.6,52.9,50.5,52.3,49.7z M52,52.3l-3.6,9.2c-0.3,0.9-1.3,1.6-2.3,1.6H31.5
										c-0.1,0-0.2,0.1-0.2,0.2c-0.2,0.6-0.8,1-1.5,1H7.6c-0.5,0-1-0.2-1.3-0.6c-0.1-0.1-0.2-0.2-0.2-0.4c0-0.1-0.1-0.1-0.2-0.1
										H2.4v-0.9h3.5c0.1,0,0.2-0.1,0.2-0.2c0.2-0.6,0.8-1,1.5-1h22.2c0.6,0,1.2,0.4,1.5,1c0,0.1,0.1,0.2,0.2,0.2h14.6
										c0.7,0,1.3-0.4,1.5-1.1l3.6-9.2c0.2-0.5,0.1-1-0.1-1.5c-0.3-0.4-0.8-0.7-1.3-0.7H49V49h0.8c0.8,0,1.6,0.4,2,1
										C52.2,50.7,52.3,51.5,52,52.3z"/>
								</g>
							</g>
						</g>
					</g>
				</g>
				<g>
					<g>
						<g>
							<g>
								<g>
									<path class="st0" d="M47.5,56.2l-0.7-3.4c0-0.1-0.1-0.2-0.3-0.2h-3.9c-0.1,0-0.2,0.1-0.2,0.2l-0.7,2.4
										c-1.2-0.1-2.4,0.6-2.7,0.8l0,0c0,0.2-0.1,0.4-0.1,0.6c0.1,0,0.2,0,0.2,0s0.1,0,0.2,0c0,0,1.4-1,2.6-0.8
										c0.1,0,0.2,0,0.3-0.2l0.7-2.4h3.4l0.7,3.2c0,0,0,0,0.1,0c0,0,1.3,1.7,0.6,3.2l0.5,0.2C49,58.2,47.7,56.5,47.5,56.2z"/>
								</g>
							</g>
						</g>
					</g>
				</g>
				<g>
					<g>
						<g>
							<g>
								<g>
									<path class="st0" d="M48.7,47.2c0,0-0.4-1.4-0.9-2l-0.4,0.3c0.2,0.4,0.5,1.1,0.7,1.5h-2.7c-0.1-0.4-0.4-1-0.9-1
										c-0.6,0-0.9,0.6-1,1h-3c0,0.2-0.1,0.4-0.1,0.6h3.3c0.1,0,0.2-0.1,0.2-0.2c0-0.3,0.2-0.8,0.5-0.8c0.2,0,0.4,0.5,0.4,0.7
										c0,0.1,0.1,0.2,0.3,0.2h3.3c0.1,0,0.2,0,0.2-0.1C48.7,47.4,48.8,47.3,48.7,47.2z"/>
								</g>
							</g>
						</g>
					</g>
				</g>
				<g>
					<g>
						<g>
							<g>
								<g>
									<rect x="40.8" y="48.5" class="st0" width="7.1" height="0.5"/>
								</g>
							</g>
						</g>
					</g>
				</g>
				<g>
					<g>
						<g>
							<g>
								<g>
									<rect x="41.4" y="49.9" class="st0" width="5.9" height="0.5"/>
								</g>
							</g>
						</g>
					</g>
				</g>
				<g>
					<g>
						<g>
							<g>
								<g>
									<rect x="42.1" y="51.2" class="st0" width="4.8" height="0.5"/>
								</g>
							</g>
						</g>
					</g>
				</g>
				<g>
					<g>
						<g>
							<g>
								<g>
									<path class="st0" d="M54.3,37.1L53.8,36c-0.1-0.1-0.2-0.2-0.4-0.1c0,0-0.2,0.1-0.5,0.1s-0.6-0.2-0.9-0.5
										c-0.4-0.6-1-1.2-1.4-1.7c-0.2-0.2-0.4-0.3-0.6-0.4c0,0.1,0,0.1,0,0.2c0,0,0,0,0,0.1s0,0.3-0.1,0.4c0.1,0.1,0.2,0.1,0.3,0.2
										c0.3,0.3,0.9,1,1.3,1.6c0.3,0.4,0.8,0.7,1.3,0.7c0.2,0,0.4,0,0.5-0.1l0.2,0.5c-0.3,0-0.8,0-1.3,0s-1.7-1.2-2.4-2.1
										l-0.2-0.2c0,0,0-0.1,0,0s-0.3,0.5-0.3,0.6c0.4,0.5,2,2.3,2.9,2.3s1.8,0,1.9,0c0,0,0.1,0,0.2-0.1
										C54.4,37.3,54.4,37.2,54.3,37.1z"/>
								</g>
							</g>
						</g>
					</g>
				</g>
				<g>
					<g>
						<g>
							<g>
								<g>
									<path class="st0" d="M47.4,36.2c-0.5,0-1-0.4-1-1s0.4-1,1-1s1,0.4,1,1S47.9,36.2,47.4,36.2z M47.4,34.7
										c-0.2,0-0.4,0.2-0.4,0.5s0.2,0.5,0.4,0.5s0.4-0.2,0.4-0.5S47.6,34.7,47.4,34.7z"/>
								</g>
							</g>
						</g>
					</g>
				</g>
				<g>
					<g>
						<g>
							<g>
								<g>
									
										<rect x="49.9" y="46.6" transform="matrix(0.4134 -0.9106 0.9106 0.4134 -11.3552 75.9811)" class="st0" width="6.8" height="0.5"/>
								</g>
							</g>
						</g>
					</g>
				</g>
				<g>
					<g>
						<g>
							<g>
								<g>
									
										<rect x="49.4" y="46.2" transform="matrix(0.4134 -0.9106 0.9106 0.4134 -11.623 74.8709)" class="st0" width="5.8" height="0.5"/>
								</g>
							</g>
						</g>
					</g>
				</g>
				<g>
					<g>
						<g>
							<g>
								<g>
									<path class="st0" d="M40.8,59.2c-0.6,0-1.2-0.5-1.2-1.2s0.5-1.2,1.2-1.2c0.6,0,1.2,0.5,1.2,1.2
										C42,58.6,41.5,59.2,40.8,59.2z M40.8,57.3c-0.3,0-0.6,0.3-0.6,0.6s0.3,0.6,0.6,0.6s0.6-0.3,0.6-0.6
										C41.4,57.6,41.1,57.3,40.8,57.3z"/>
								</g>
							</g>
						</g>
					</g>
				</g>
				<g>
					<g>
						<g>
							<g>
								<g>
									<path class="st0" d="M58.8,41.2l-0.5-0.1c1.4-4.7-0.4-6.6-0.4-6.6l0.4-0.4C58.4,34.2,60.2,36.2,58.8,41.2z"/>
								</g>
							</g>
						</g>
					</g>
				</g>
				<g>
					<g>
						<g>
							<g>
								<path class="st0" d="M61.7,50.8c0.2,0,0.3-0.1,0.5-0.2l-0.9-2c-0.2,0-0.3,0.1-0.5,0.2L61.7,50.8z"/>
							</g>
						</g>
					</g>
				</g>
				<g>
					<g>
						<g>
							<g>
								<path class="st0" d="M65.8,59.3l-0.7,0.3l-3.9-8c-0.1,0.1-0.3,0.1-0.5,0.2l4.1,8.5l1.8-0.8L62.5,51c-0.2,0-0.3,0.1-0.5,0.2
									L65.8,59.3z"/>
							</g>
						</g>
					</g>
				</g>
				<g>
					<g>
						<g>
							<g>
								<path class="st0" d="M59.6,49.4l0.9,2c0.1-0.1,0.3-0.2,0.5-0.2l-0.9-2C59.9,49.3,59.7,49.3,59.6,49.4z"/>
							</g>
						</g>
					</g>
				</g>
				<g>
					<g>
						<g>
							<g>
								<path class="st0" d="M58.8,40.9H57l3.6,7.5c0.2,0,0.3-0.1,0.5-0.2l-3.2-6.7h0.9c0.1,0,1.5-0.2,1.8-3.4
									c0.2-2.9-1.1-3.8-1.2-3.9l0,0l0,0c0,0-0.7-0.1-1.6-0.1h-2.2l-1.9,0.4c-0.2,0-0.5,0.2-0.6,0.4s-0.1,0.5,0,0.7l0.9,2
									c0,0.2-0.1,0.4-0.3,0.5c-0.6,0.5-1.8,0.4-2.2,0.4c-0.4-0.3-1-0.7-1.9-0.8c-0.9-0.2-1.8-0.3-2.7-0.3c-1.8,0-3.8,0.3-6.8,1.1
									C38.3,39.1,37,40,36,40.9c0.2,0.1,0.4,0.2,0.6,0.3c0.9-0.8,2.1-1.6,3.7-2.1c2.8-0.8,4.8-1.1,6.6-1.1c0.9,0,1.8,0.1,2.6,0.3
									c2.4,0.5,2.6,2.4,2.7,2.5c0,1.3-0.3,2.2-1,2.9c-1.3,1.3-3.6,1.4-5.9,1.4h-4.8c0.1,0.2,0.1,0.4,0.2,0.6h4.5
									c2.3,0,4.6-0.1,6-1.3l5.5-0.5l2.4,5.1c0.1-0.1,0.3-0.1,0.5-0.2l-6.2-13.3c0-0.1,0-0.2,0-0.2c0-0.1,0.1-0.1,0.2-0.1l1.9-0.4
									h2.1c0.7,0,1.3,0.1,1.5,0.1c0.2,0.2,1.1,1.1,0.9,3.3C59.8,40.6,58.9,40.8,58.8,40.9z M54.3,38.3l2.4,5L52,43.7
									c0.6-0.7,0.8-1.7,0.8-2.9c0,0,0-0.6-0.5-1.3c0-0.1-0.1-0.2-0.2-0.3c0.6,0,1.4-0.1,1.9-0.6C54.1,38.5,54.2,38.4,54.3,38.3z"
									/>
							</g>
						</g>
					</g>
				</g>
				<g>
					<g>
						<g>
							<g>
								<path class="st0" d="M74.5,50.9c-2.4-2.6-5.7-4-9.3-4c-1.5,0-2.9,0.3-4.3,0.7l0.2,0.5c1.3-0.4,2.6-0.7,4-0.7
									c3.2,0,6.3,1.3,8.6,3.5c-1.2,0.4-2.4,0.5-3,0.5c-1.7-1.1-3.6-1.8-5.6-1.8c-1.1,0-2.1,0.1-3,0.5l0.2,0.5
									c0.9-0.3,1.8-0.4,2.8-0.4c2,0,3.8,0.6,5.4,1.7h0.1h0.1c0.7,0,2.2-0.1,3.6-0.7l0.4-0.1L74.5,50.9z"/>
							</g>
						</g>
					</g>
				</g>
				<g>
					<g>
						<g>
							<g>
								<path class="st0" d="M55.3,59.7c0,0.6,0,1.2,0.1,1.8c-0.5,1-1.4,1.6-1.9,2c-0.4-1.2-0.6-2.5-0.6-3.7c0-4.6,2.5-8.6,6.3-10.7
									L59,48.5c-4,2.2-6.7,6.4-6.7,11.2c0,1.4,0.2,2.8,0.7,4.2l0.1,0.3l0.3-0.1c0.6-0.3,1.7-1.1,2.4-2.4v-0.1v-0.1
									c-0.1-0.6-0.2-1.2-0.2-1.8c0-3.5,1.9-6.5,4.7-8.1L60.2,51C57.3,52.8,55.3,56,55.3,59.7z"/>
							</g>
						</g>
					</g>
				</g>
				<g>
					<g>
						<g>
							<g>
								<path class="st0" d="M61.7,50.8l0.2,0.5c0.2,0,0.3-0.1,0.5-0.2l-0.2-0.5C62.1,50.6,61.9,50.7,61.7,50.8z"/>
							</g>
						</g>
					</g>
				</g>
				<g>
					<g>
						<g>
							<g>
								<path class="st0" d="M60.8,48.8c0.2,0,0.3-0.1,0.5-0.2l-0.2-0.5c-0.2,0-0.3,0.1-0.5,0.2L60.8,48.8z"/>
							</g>
						</g>
					</g>
				</g>
				<g>
					<g>
						<g>
							<g>
								<path class="st0" d="M60.1,49.2l-0.2-0.4c-0.1,0.1-0.3,0.1-0.5,0.2l0.2,0.5C59.7,49.3,59.9,49.3,60.1,49.2z"/>
							</g>
						</g>
					</g>
				</g>
				<g>
					<g>
						<g>
							<g>
								<path class="st0" d="M61,51.1c-0.1,0.1-0.3,0.1-0.5,0.2l0.2,0.5c0.1-0.1,0.3-0.2,0.5-0.2L61,51.1z"/>
							</g>
						</g>
					</g>
				</g>
			</g>
		</g>
		<g>
			<g>
				<g>
					<g>
						<g>
							<path class="st0" d="M28.5,42.9c-0.2,0-0.5,0-0.8,0c-2.5-0.3-5.3-1.6-7.1-2.6C18,38.9,19,36.9,19,36.8l7.1-15
								c1-3.1,3.7-3.2,3.8-3.2c0.1,0,0.3,0.1,0.3,0.3c0,0.2-0.1,0.3-0.3,0.3c-0.1,0-2.4,0.2-3.3,2.9l-7.1,15c0,0.1-0.7,1.5,1.4,2.7
								c1.8,1,4.5,2.2,6.9,2.5c2,0.2,2.6-0.4,2.9-1.8c0.4-1.4,2.4-7.9,2.6-8.8l-1.2-3.4v-0.1l0,0l0,0l0,0l0,0c0-0.1,0.1-0.2,0.2-0.3
								c0.1-0.1,0.3,0,0.4,0.2l0,0c0,0.1,1.2,3.4,3,3.8l7.2,1.9l3.7,1.2c0.1,0,0.2,0.2,0.2,0.4c0,0.1-0.2,0.2-0.4,0.2l-3.7-1.2
								l-7.1-1.9c-0.7-0.2-1.3-0.6-1.8-1.2l0.1,0.4c0,0.1,0,0.1,0,0.2s-2.3,7.4-2.7,8.9C30.9,42,30.2,42.9,28.5,42.9z"/>
						</g>
					</g>
				</g>
			</g>
			<g>
				<g>
					<g>
						<g>
							<path class="st0" d="M48.3,35.8c-0.1,0-0.3-0.1-0.3-0.2c0-0.2,0.1-0.3,0.2-0.3c1.1-0.2,1.2-1.4,1.2-1.8l-1-0.7
								c-0.9-0.2-1.4,0.6-1.5,0.6c-0.1,0.1-0.2,0.1-0.3,0.1L36,28.6c-0.1,0-0.1-0.1-0.2-0.2c-0.8-3.6-1.7-7.1-1.7-7.2
								c0-0.1,0-0.2,0.1-0.3l0.8-0.8c0.1-0.1,0.3-0.1,0.4,0c0.1,0.1,0.1,0.3,0,0.4l-0.6,0.6c0.2,0.7,0.9,3.8,1.7,6.9l10.3,4.7
								c0.3-0.3,1-0.9,1.9-0.7h0.1l1.2,0.8c0.1,0,0.1,0.1,0.1,0.2C50,34.1,49.7,35.6,48.3,35.8L48.3,35.8z"/>
						</g>
					</g>
				</g>
			</g>
			<g>
				<g>
					<g>
						<g>
							<path class="st0" d="M36.6,62.1c-2.6,0-3.1-0.4-3.3-0.7c-0.1-0.2,0-0.4,0-0.5c0.6-2.4,1.2-3.3,1.4-3.6
								c-1.4-3.8,0.7-10.3,0.8-10.6c0-0.1,0.2-0.2,0.4-0.2c0.1,0,0.2,0.2,0.2,0.4c0,0.1-2.2,6.7-0.8,10.4c0,0.1,0,0.2-0.1,0.3
								c0,0-0.6,0.6-1.4,3.5c0,0,0,0.1-0.1,0.1c0,0,0.3,0.4,2.7,0.4c0.2-0.1,0.8-0.3,1.9-0.2c1.6,0.2,3.6,0.2,4.1-0.1
								c0.2-0.1,0.2-0.3,0.2-0.5c-0.1-0.4-0.6-0.9-1.8-0.9c-0.1,0-0.1,0-0.2-0.1c-0.4-0.3-2.2-1.7-2.2-2.5c0-0.2,2-10.8,1.7-12.5
								c-0.2-1.7-1.8-3.1-9-4.6c-0.2,0-0.3-0.2-0.2-0.3c0-0.2,0.2-0.3,0.3-0.2c7.6,1.5,9.2,3,9.5,5c0.2,1.8-1.7,12.2-1.7,12.6
								c0,0.3,1,1.3,1.9,2c1.4,0,2,0.7,2.2,1.3c0.1,0.5,0,0.9-0.4,1.1c-0.9,0.5-3.5,0.3-4.5,0.2c-1.1-0.1-1.6,0.1-1.6,0.1
								C36.7,62.1,36.7,62.1,36.6,62.1z"/>
						</g>
					</g>
				</g>
			</g>
			<g>
				<g>
					<g>
						<g>
							<path class="st0" d="M32.2,17.3c-0.5,0-0.9,0-1.4,0h-0.7l0,0c-0.4,0-0.8-0.2-1.1-0.6c-0.5-0.8-1.6-2.9-0.2-5.4
								c0.9-1.6,2.7-2.5,4.6-2.4c2,0.1,3.6,1.3,4.3,3.2c0.1,0.2,0.5,1.5,0.3,2.2c0,0.1-0.1,0.2-0.3,0.2H35c0.2,0.6-0.1,1.3-0.2,1.5
								c-0.3,0.5-0.7,0.9-1.2,1.1c-0.4,0.2-0.8,0.2-1.2,0.2H32.2L32.2,17.3z M30,16.7h0.7c0.6,0,1.1,0,1.6,0h0.1
								c0.4,0,0.7,0,0.9-0.1c0.4-0.2,0.7-0.5,0.9-0.8c0.2-0.4,0.3-0.9,0.2-1.1c-0.1-0.2-0.1-0.4,0-0.5C34.5,14,34.9,14,35,14h2.4
								c0-0.4-0.2-1.2-0.3-1.6c-0.7-1.6-2.1-2.7-3.8-2.8s-3.3,0.7-4.1,2.1c-1.2,2.1-0.4,3.9,0.2,4.8C29.6,16.6,29.8,16.7,30,16.7z"
								/>
						</g>
					</g>
				</g>
			</g>
			<g>
				<g>
					<g>
						<g>
							<path class="st0" d="M36.1,18.1c-0.1,0-0.2,0-0.2-0.1c-0.1-0.1-0.1-0.3,0.1-0.4l0.2,0.2L36,17.5c0.3-0.3,0.4-0.8,0.3-1.1
								c0-0.2,0-0.4,0.2-0.6c0.1-0.1,0.3-0.2,0.5-0.2l-0.7-1.3c-0.1-0.1,0-0.3,0.1-0.4c0.1-0.1,0.3,0,0.4,0.1l0.7,1.4v0.1
								c0,0,0,0.3-0.1,0.5c-0.1,0.1-0.2,0.2-0.4,0.2c-0.1,0-0.1,0-0.2,0.1v0.1c0.1,0.7-0.1,1.2-0.4,1.5L36.3,18c0,0-0.1,0-0.1,0.1
								C36.2,18.1,36.2,18.1,36.1,18.1z"/>
						</g>
					</g>
				</g>
			</g>
			<g>
				<g>
					<g>
						<g>
							<path class="st0" d="M30.9,18.2c-0.2,0-0.3-0.1-0.3-0.3V17c0-0.2,0.1-0.3,0.3-0.3l0,0c0.2,0,0.3,0.1,0.3,0.3v0.9
								C31.2,18.1,31,18.2,30.9,18.2L30.9,18.2z"/>
						</g>
					</g>
				</g>
			</g>
			<g>
				<g>
					<g>
						<g>
							<path class="st0" d="M34.2,19.3c-0.2,0-0.3-0.1-0.3-0.3v-0.8l-0.2-0.5c-0.1-0.1,0-0.3,0.2-0.4c0.1-0.1,0.3,0,0.4,0.2l0.2,0.6
								v0.1V19C34.5,19.2,34.4,19.3,34.2,19.3z"/>
						</g>
					</g>
				</g>
			</g>
			<g>
				<g>
					<g>
						<g>
							<path class="st0" d="M34.7,18.5L34.7,18.5c-1.4-0.8-1.3-1.6-1.3-1.7c0-0.2,0.2-0.3,0.3-0.2c0.2,0,0.3,0.2,0.2,0.3l0,0
								c0,0,0,0.5,1,1.1c0.1,0.1,0.2,0.3,0.1,0.4C34.9,18.4,34.8,18.5,34.7,18.5z"/>
						</g>
					</g>
				</g>
			</g>
			<g>
				<g>
					<g>
						<g>
							<path class="st0" d="M35,19.5C35,19.5,34.9,19.5,35,19.5l-4.7-1.1c-0.2,0-0.2-0.2-0.2-0.3c0-0.2,0.2-0.2,0.3-0.2L35,19
								c0.2,0,0.2,0.2,0.2,0.3C35.2,19.5,35.1,19.5,35,19.5z"/>
						</g>
					</g>
				</g>
			</g>
			<g>
				<g>
					<g>
						<g>
							<path class="st0" d="M35,20c-0.2,0-0.3-0.1-0.3-0.3v-0.4c0-0.2,0.1-0.3,0.3-0.3s0.3,0.1,0.3,0.3v0.4C35.3,19.9,35.2,20,35,20
								z"/>
						</g>
					</g>
				</g>
			</g>
		</g>
		<g>
			<g>
				<g>
					<g>
						<g>
							<path class="st0" d="M48.9,31c0.1,0,0.1,0.1,0.1,0.2c0,0,0,0.8-0.3,1.4c0,0.1-0.2,0.2-0.3,0.2h-0.1c-0.1-0.1-0.2-0.2-0.1-0.4
								c0.2-0.4,0.2-0.8,0.2-1l-1-0.7c-0.9-0.2-1.5,0.6-1.5,0.6c-0.1,0.1-0.2,0.1-0.3,0.1l-9.9-4.2c-0.1-0.1-0.2-0.2-0.2-0.4
								c0.1-0.1,0.2-0.2,0.4-0.2l9.7,4.1c0.3-0.3,1-0.9,1.9-0.7"/>
						</g>
					</g>
				</g>
			</g>
		</g>
		<g>
			<g>
				<path class="st0" d="M67,14.1c-1.5,0-2.7-1.2-2.7-2.7s1.2-2.7,2.7-2.7s2.7,1.2,2.7,2.7C69.6,12.9,68.4,14.1,67,14.1z M67,9.3
					c-1.2,0-2.1,1-2.1,2.1c0,1.2,1,2.1,2.1,2.1c1.2,0,2.1-1,2.1-2.1S68.1,9.3,67,9.3z"/>
			</g>
		</g>
		<g>
			<g>
				<path class="st0" d="M58.7,16L58.7,16c-0.1,0-0.2-0.1-0.3-0.2c0-0.1-0.3-0.2-0.5-0.1c-0.2,0-0.3-0.1-0.3-0.3
					c0-0.1,0.1-0.3,0.3-0.3c0.1,0,0.5,0,0.8,0.2c0.2-0.1,0.4-0.2,0.8-0.2c0.1,0,0.3,0.1,0.3,0.3c0,0.1-0.1,0.3-0.3,0.3
					c-0.4,0-0.6,0.2-0.6,0.2S58.8,16,58.7,16z"/>
			</g>
		</g>
		<g>
			<g>
				<path class="st0" d="M65.5,18.4L65.5,18.4c-0.1,0-0.2-0.1-0.3-0.2c0-0.1-0.3-0.2-0.5-0.1c-0.2,0-0.3-0.1-0.3-0.3
					s0.1-0.3,0.3-0.3c0.1,0,0.5,0,0.8,0.2c0.2-0.1,0.4-0.2,0.8-0.2c0.1,0,0.3,0.1,0.3,0.3c0,0.1-0.1,0.3-0.3,0.3
					c-0.5,0-0.6,0.2-0.6,0.2C65.7,18.3,65.6,18.4,65.5,18.4z"/>
			</g>
		</g>
		<g>
			<g>
				<path class="st0" d="M13.5,4.3c-0.8,0-1.5,0.6-1.6,1.3l0,0c0,0.1-0.1,0.1-0.1,0.1c-0.2-0.1-0.4-0.1-0.6-0.1
					c-0.8,0-1.4,0.6-1.4,1.3h1c0.1,0,0.1,0,0.1,0.1s0,0.1-0.1,0.1L8,7.2c-0.1,0-0.1,0-0.1-0.1S7.9,7,8,7h1.5
					c0.1-0.9,0.8-1.6,1.7-1.6c0.2,0,0.4,0,0.5,0.1c0.2-0.8,0.9-1.3,1.7-1.4c0.2-2.2,2-4,4.3-4c2.4,0,4.2,1.9,4.2,4.3
					c0,0.4-0.1,0.8-0.2,1.1l0,0c0.8,0,1.5,0.7,1.4,1.5l0,0h1.7c0.1,0,0.1,0,0.1,0.1s0,0.1-0.1,0.1h-1.9l0,0l0,0l0,0
					C23,7.3,23,7.2,23,7.1c0,0,0-0.1,0-0.2c0-0.7-0.6-1.2-1.2-1.2c0,0-0.1,0-0.2,0l0,0l0,0l0,0c0,0,0,0-0.1,0l0,0l0,0l0,0l0,0l0,0
					l0,0c0.1-0.4,0.2-0.8,0.2-1.2c0-2.2-1.8-4-4-4.1c-2.2,0-3.9,1.7-4.1,3.8C13.7,4.3,13.6,4.3,13.5,4.3L13.5,4.3L13.5,4.3L13.5,4.3
					L13.5,4.3z"/>
				<path class="st0" d="M25,7.4L25,7.4h-1.9c-0.1,0-0.2,0-0.2-0.1s-0.1-0.1,0-0.2V7c0-0.6-0.5-1.1-1.1-1.1h-0.2
					c-0.1,0-0.1,0-0.2-0.1h-0.1V5.6c0.1-0.4,0.2-0.8,0.2-1.2c0-2.1-1.7-3.9-3.9-3.9l0,0c-2.1,0-3.8,1.6-3.9,3.7c0,0.1,0,0.1-0.1,0.2
					c0,0-0.1,0.1-0.2,0.1l0,0l0,0l0,0c-0.7,0-1.3,0.5-1.5,1.2l0,0l0,0c0,0.1-0.1,0.1-0.1,0.1c-0.1,0-0.1,0-0.2,0
					c-0.2-0.1-0.4-0.1-0.5-0.1l0,0c-0.6,0-1.2,0.5-1.3,1.1h0.9c0.1,0,0.2,0.1,0.2,0.2s0,0.1-0.1,0.2c0,0-0.1,0.1-0.2,0.1l0,0H8
					C7.8,7.3,7.7,7.2,7.7,7c0-0.1,0-0.1,0.1-0.2c0,0,0.1-0.1,0.2-0.1l0,0h1.4c0.1-0.9,0.9-1.6,1.8-1.6l0,0c0.2,0,0.3,0,0.4,0.1
					c0.3-0.7,0.9-1.2,1.7-1.3c0.2-2.2,2.1-4,4.3-4l0,0c1.2,0,2.3,0.5,3.1,1.3c0.9,0.9,1.3,2,1.3,3.2c0,0.3,0,0.7-0.1,1
					c0.4,0,0.7,0.2,1,0.5s0.4,0.7,0.5,1H25c0.1,0,0.2,0.1,0.2,0.2s0,0.1-0.1,0.2C25.1,7.4,25,7.4,25,7.4z M9.6,7.1L9.6,7.1L9.6,7.1
					c0-0.2,0-0.4,0.1-0.5C9.7,6.7,9.6,6.9,9.6,7.1L9.6,7.1z M11.2,5.5c-0.5,0-0.9,0.2-1.2,0.6C10.3,5.7,10.7,5.5,11.2,5.5L11.2,5.5
					c0.2,0,0.3,0,0.4,0.1C11.5,5.5,11.3,5.5,11.2,5.5L11.2,5.5z M11.8,5.6L11.8,5.6L11.8,5.6z M11.8,5.6L11.8,5.6L11.8,5.6L11.8,5.6
					z M12.2,4.8C12,5,11.9,5.2,11.8,5.5C11.9,5.2,12,5,12.2,4.8z"/>
			</g>
			<g>
				<path class="st0" d="M1.7,8h1.7c0.1,0,0.1,0,0.1,0.1s0,0.1-0.1,0.1H1.7c-0.1,0-0.1,0-0.1-0.1C1.6,8.1,1.6,8,1.7,8z"/>
				<path class="st0" d="M3.4,8.4L3.4,8.4H1.7c-0.1,0-0.1,0-0.2-0.1c0,0-0.1-0.1-0.1-0.2S1.5,8,1.5,8s0.1-0.1,0.2-0.1l0,0h1.7
					c0.1,0,0.2,0.1,0.2,0.2C3.7,8.3,3.6,8.4,3.4,8.4z M1.7,8.2L1.7,8.2h1.7H1.7z"/>
			</g>
			<g>
				<path class="st0" d="M5,8.1l7.8,0.1c0.1,0,0.1,0,0.1,0.1s0,0.1-0.1,0.1L5,8.3C4.9,8.3,4.9,8.3,5,8.1C4.8,8.1,4.9,8.1,5,8.1z"/>
				<path class="st0" d="M12.7,8.5L12.7,8.5L5,8.4c-0.1,0-0.2-0.1-0.2-0.2s0-0.3,0.2-0.3l0,0L12.7,8C12.9,8,13,8.1,13,8.2
					C13,8.4,12.9,8.5,12.7,8.5z M5,8.2L5,8.2l7.8,0.1L5,8.2z"/>
			</g>
		</g>
	</g>
</g>
</svg>
