<?xml version="1.0" encoding="utf-8"?>
<!-- Generator: Adobe Illustrator 23.0.1, SVG Export Plug-In . SVG Version: 6.00 Build 0)  -->
<svg version="1.1" id="Layer_1" xmlns="http://www.w3.org/2000/svg" xmlns:xlink="http://www.w3.org/1999/xlink" x="0px" y="0px"
	 viewBox="0 0 76.7 71.3" style="enable-background:new 0 0 76.7 71.3;" xml:space="preserve">
<style type="text/css">
	.st0{fill:#212121;}
</style>
<g>
	<g>
		<g>
			<path class="st0" d="M51.2,65.1L15,63.7L1,59.6c-0.3-0.1-0.4-0.3-0.3-0.6s0.3-0.4,0.6-0.3l13.9,4.1l36,1.3c7.6,0,13-9.1,13-9.2
				l10.1-17.4c1.1-3,1-5.7-0.2-8c-2.5-4.6-8.9-6.4-9.8-6.7C63,23.3,63,25.2,63,26c10.4,3.1,8.5,10.4,8.4,10.5l-0.1,0.1L58.7,56.8
				c-1.1,1.9-2.9,3.3-4.9,3.8c-3.4,0.9-6.9,0.4-7.1,0.4l-32.6-1.5L1,54.7c-0.2-0.1-0.4-0.4-0.3-0.6c0.1-0.2,0.4-0.4,0.6-0.3l13,4.9
				L46.8,60c0.1,0,3.5,0.5,6.7-0.4c1.8-0.5,3.4-1.7,4.3-3.4L70.4,36c0.2-0.7,1.3-6.7-8.1-9.3l-0.3,0v-0.3c0-0.2-0.4-3.9,2.1-4.6h0.1
				h0.1c0.3,0.1,7.7,1.8,10.6,7.2c1.4,2.6,1.5,5.6,0.2,8.9L65,55.4C64.8,55.8,59.4,65.1,51.2,65.1z"/>
		</g>
		<g>
			<path class="st0" d="M38.5,58.7c-11.9,0-21.6-5.5-21.6-12.3c0-3.5,2.5-6.8,7-9.1c0.2-0.1,0.5,0,0.7,0.2c0.1,0.2,0,0.5-0.2,0.7
				c-4.1,2.2-6.4,5.2-6.4,8.2c0,6.3,9.2,11.4,20.6,11.4s20.6-5.1,20.6-11.4S50,35,38.6,35c-2.5,0-5,0.2-7.3,0.7l-3.1,0.8
				c-0.6,0.2-1.1,0.4-1.7,0.6c-0.2,0.1-0.5,0-0.6-0.3c-0.1-0.2,0-0.5,0.3-0.6c0.6-0.2,1.2-0.4,1.8-0.6l3.1-0.8
				c2.4-0.5,4.9-0.8,7.5-0.8c11.9,0,21.6,5.5,21.6,12.3C60.1,53.2,50.4,58.7,38.5,58.7z"/>
		</g>
		<g>
			<path class="st0" d="M63.5,18.7l-10.4-2.1v-0.4c0,0,0.2-2.4-1-2.7c-1-0.2-1.9,1.6-2.1,2.2l-0.1,0.4l-12-2.4l0.1-0.5
				c0.4-2,2.4-5.1,2.4-5.3l1.2-1.6c0.2-0.2,0.5-0.3,0.7-0.1c0.2,0.2,0.3,0.5,0.1,0.7l-1.2,1.6l0,0c0,0-1.6,2.6-2.2,4.4l10.2,2
				c0.4-0.8,1.5-2.8,3.1-2.4c1.6,0.3,1.8,2.3,1.8,3.2l8.2,1.6c-0.2-1.2-0.6-3.8-1.2-5.1l-1.9-5c-0.1-0.2,0-0.5,0.3-0.6
				c0.2-0.1,0.5,0,0.6,0.3l1.9,5c0.8,1.9,1.3,5.9,1.4,6L63.5,18.7z"/>
		</g>
		<g>
			<path class="st0" d="M54.8,27.3C54.8,27.3,54.7,27.3,54.8,27.3l-15.1-3c-0.3-0.1-0.4-0.3-0.4-0.6c0.1-0.3,0.3-0.4,0.6-0.4l15,3
				c0.3,0.1,0.4,0.3,0.4,0.6C55.2,27.2,55,27.3,54.8,27.3z"/>
		</g>
		<g>
			<path class="st0" d="M57.7,24.1C57.6,24.1,57.6,24.1,57.7,24.1l-19.1-3.8c-0.3-0.1-0.4-0.3-0.4-0.6c0.1-0.3,0.3-0.4,0.6-0.4
				l19,3.8c0.3,0.1,0.4,0.3,0.4,0.6C58.1,23.9,57.9,24.1,57.7,24.1z"/>
		</g>
		<g>
			<path class="st0" d="M61.2,21.7C61.1,21.7,61.1,21.7,61.2,21.7l-24.6-4.9c-0.3-0.1-0.4-0.3-0.4-0.6c0.1-0.3,0.3-0.4,0.6-0.4
				l24.5,4.9c0.3,0.1,0.4,0.3,0.4,0.6C61.6,21.6,61.4,21.7,61.2,21.7z"/>
		</g>
		<g>
			<path class="st0" d="M52.9,30C52.9,30,52.8,30,52.9,30l-12.4-2.5c-0.3-0.1-0.4-0.3-0.4-0.6c0.1-0.3,0.3-0.4,0.6-0.4L53,29
				c0.3,0.1,0.4,0.3,0.4,0.6C53.3,29.8,53.1,30,52.9,30z"/>
		</g>
		<g>
			<path class="st0" d="M51.3,33.2L51.3,33.2l-10.2-2c-0.3-0.1-0.4-0.3-0.4-0.6c0.1-0.3,0.3-0.4,0.6-0.4l10.1,2
				c0.3,0.1,0.4,0.3,0.4,0.6C51.8,33.1,51.6,33.2,51.3,33.2z"/>
		</g>
		<g>
			<path class="st0" d="M25.3,29.9C25.2,29.9,25.2,29.9,25.3,29.9c-0.3,0-0.5-0.3-0.5-0.5c0.2-1.4,0-2.5-0.5-3.1
				c-0.4-0.5-0.9-0.5-0.9-0.5L18.5,25c-0.3,0-0.4-0.3-0.4-0.6c0-0.3,0.3-0.4,0.6-0.4l4.8,0.8c0,0,0.9,0,1.6,0.9
				c0.7,0.8,0.9,2.1,0.7,3.8C25.7,29.8,25.5,29.9,25.3,29.9z"/>
		</g>
		<g>
			<path class="st0" d="M24.1,36.1c-0.3,0-0.5-0.2-0.5-0.5v-5.2c0-0.8,0.7-1.5,1.5-1.5c0.9,0,1.6,0.7,1.6,1.6v4.7
				c0,0.3-0.2,0.5-0.5,0.5s-0.5-0.2-0.5-0.5v-4.7c0-0.4-0.3-0.7-0.7-0.7c-0.3,0-0.5,0.2-0.5,0.5v5.2C24.6,35.9,24.3,36.1,24.1,36.1z
				"/>
		</g>
		<g>
			<path class="st0" d="M25.2,41.8c-0.9,0-1.6-0.7-1.6-1.6v-4.7c0-0.3,0.2-0.5,0.5-0.5s0.5,0.2,0.5,0.5v4.7c0,0.4,0.3,0.7,0.7,0.7
				c0.3,0,0.5-0.2,0.5-0.5v-5.2c0-0.3,0.2-0.5,0.5-0.5s0.5,0.2,0.5,0.5v5.2C26.7,41.1,26,41.8,25.2,41.8z"/>
		</g>
		<g>
			<path class="st0" d="M36.2,55.2c-1.4,0-2.5-1.1-2.5-2.5s1.1-2.5,2.5-2.5s2.5,1.1,2.5,2.5C38.7,54.1,37.6,55.2,36.2,55.2z
				 M36.2,51.1c-0.9,0-1.6,0.7-1.6,1.6c0,0.9,0.7,1.6,1.6,1.6c0.9,0,1.6-0.7,1.6-1.6C37.7,51.8,37,51.1,36.2,51.1z"/>
		</g>
		<g>
			<g>
				<path class="st0" d="M32.7,43H32l0,0v0.1c0,0.1-0.1,0.2-0.1,0.3l-0.5,1.3c-0.1,0.2-0.1,0.2-0.2,0.4l0,0h0.6l0,0
					c0-0.1,0-0.1,0-0.2c0-0.1,0-0.2,0.1-0.3v-0.1h0.7c0,0,0,0.1,0.1,0.2c0,0.1,0,0.1,0,0.2c0,0,0,0.1,0,0.2l0,0h0.9l0,0
					c-0.1-0.1-0.1-0.3-0.2-0.5L32.7,43z M32.1,44.3l0.2-0.6l0,0l0.2,0.6H32.1z M31,44.7c0,0.2,0,0.4,0.1,0.5l0,0h-0.8l0,0
					c0.1-0.1,0.1-0.3,0.1-0.5v-0.4v-0.1L30.2,44l-0.4-0.8c-0.1-0.1-0.1-0.2-0.2-0.3l0,0h0.7l0,0l0.4,0.9l0.1-0.2
					c0-0.1,0.1-0.2,0.1-0.2c0-0.1,0.1-0.2,0.1-0.3s0-0.1,0-0.1l0,0h0.6l0,0L31,44.2v0.1V44.7z M35.3,45.2h-1.5l0,0
					c0.1-0.1,0.1-0.3,0.1-0.5v-1.2c0-0.3,0-0.4-0.1-0.5l0,0h0.8l0,0c-0.1,0.1-0.1,0.2-0.1,0.5v1.2c0.1,0,0.2,0,0.3,0
					c0.3,0,0.4,0,0.5-0.1l0,0V45.2z M28.6,43c-0.7,0-1.1,0.4-1.1,1c0,0.9,0.9,1,1.2,0.7l-0.1-0.1c-0.3,0.1-0.5-0.2-0.5-0.6
					c0-0.4,0.2-0.6,0.5-0.6s0.5,0.3,0.5,0.8s-0.3,0.9-0.9,0.9c-0.7,0-1.2-0.5-1.5-1c0.3-0.1,0.5-0.4,0.5-0.7c0-0.5-0.3-0.8-1-0.8H25
					l0,0c0,0.1,0.1,0.3,0.1,0.5v1.7c0,0.2,0,0.3-0.1,0.5l0,0h1l0,0c-0.1-0.1-0.1-0.3-0.1-0.5c0-0.3,0-0.5,0-0.5H26
					c0.6,0.9,1.3,1.2,2,1.2c1.1,0,1.7-0.7,1.7-1.4C29.7,43.5,29.3,43,28.6,43z M25.9,43.9v-1h0.2c0.3,0,0.4,0.2,0.4,0.4
					c0,0.3-0.2,0.6-0.5,0.6C26,43.9,26,43.9,25.9,43.9z M40.4,43c0,0.1-0.1,0.2-0.1,0.5v1.4c0,0.1,0,0.2,0.1,0.3l0,0h-0.1h-0.1h-0.3
					c-0.1,0-0.2-0.2-0.4-0.3c-0.1-0.1-0.7-0.8-0.7-0.8l0,0v0.6c-0.2,0-0.4,0.1-0.5,0.1v-0.1v-1.2c0-0.3,0-0.4-0.1-0.5l0,0h0.4h0.2
					l1,1.2l0,0v-0.7c0-0.3,0-0.4-0.1-0.5l0,0h0.5H40.4L40.4,43z M39.4,45.2c-0.9,0-1.1,0.5-2.2,0.5c-0.5,0-1-0.1-1-0.1l0,0
					c0.1-0.1,0.1-0.3,0.1-0.5v-2c0-0.3,0-0.4-0.1-0.5l0,0H38l0.1,0.5l0,0C38,43,37.8,43,37.6,43h-0.5v0.8h0.2c0.3,0,0.6,0,0.6,0l0,0
					v0.5l0,0c-0.1,0-0.3,0-0.6,0h-0.2v0.8c0,0,0.3,0.1,0.5,0.1c0.6,0,0.9-0.2,1.6-0.2c0,0,0,0,0.1,0c0.1,0.1,0.2,0.3,0.3,0.3
					C39.5,45.2,39.5,45.2,39.4,45.2z M43.2,43.5v1.2c0,0.2,0,0.3,0.1,0.5l0,0h-0.8l0,0c0.1-0.1,0.1-0.3,0.1-0.5v-1.2
					c0-0.3,0-0.4-0.1-0.5l0,0h0.8l0,0C43.2,43.1,43.2,43.2,43.2,43.5z M41.5,44L41.5,44L41.5,44c0.4,0,0.5,0,0.5,0l0,0v0.4l0,0
					c-0.1,0-0.2,0-0.4,0h-0.1v0.3v0.1c0,0.2,0,0.4,0.1,0.5l0,0h-0.8l0,0c0.1-0.1,0.1-0.3,0.1-0.5v-1.2c0-0.3,0-0.4-0.1-0.5l0,0h1.4
					l0.1,0.4l0,0c-0.1,0-0.2-0.1-0.4-0.1h-0.3v0.4L41.5,44L41.5,44z M45.1,44.7L45,45.2h-1l0,0h-0.5l0,0c0.1-0.1,0.1-0.3,0.1-0.5
					v-1.2c0-0.3,0-0.4-0.1-0.5l0,0H45l0.1,0.4l0,0c-0.1,0-0.2-0.1-0.4-0.1h-0.3v0.5l0,0l0,0h0.1c0.3,0,0.4,0,0.5,0l0,0v0.4l0,0
					c-0.1,0-0.2,0-0.4,0h-0.1v0.5c0.1,0,0.2,0,0.3,0C44.8,44.8,44.9,44.8,45.1,44.7L45.1,44.7z M48.9,44.2c0,0.7-0.5,1.3-1.5,1.3
					c-0.7,0-0.9-0.3-1.8-0.3l0,0h-0.4l0,0c0.1-0.1,0.1-0.3,0.1-0.5v-1.2c0-0.3,0-0.4-0.1-0.5l0,0H46l0,0c0,0.1-0.1,0.3-0.1,0.5v1.3
					c0.5,0,0.7,0.2,1.2,0.2c0.6,0,0.9-0.4,0.9-0.8c0-0.4-0.2-0.7-0.6-0.7c-0.1,0-0.2,0-0.2,0v1.3c-0.2,0-0.5,0-0.7-0.1v-1.2
					c0-0.3,0-0.4-0.1-0.5l0,0h1C48.4,43,48.9,43.5,48.9,44.2z"/>
			</g>
		</g>
	</g>
</g>
</svg>
