<?xml version="1.0" encoding="utf-8"?>
<!-- Generator: Adobe Illustrator 23.0.1, SVG Export Plug-In . SVG Version: 6.00 Build 0)  -->
<svg version="1.1" id="Layer_1" xmlns="http://www.w3.org/2000/svg" xmlns:xlink="http://www.w3.org/1999/xlink" x="0px" y="0px"
	 viewBox="0 0 76.7 71.3" style="enable-background:new 0 0 76.7 71.3;" xml:space="preserve">
<style type="text/css">
	.st0{fill:#212121;}
</style>
<g>
	<path class="st0" d="M56,14.4c-0.2-0.2-0.4-0.4-0.7-0.6l1.4-1.1l0.3-0.3l-0.2,0.3L56,14.4z M48.5,15.8c-0.1,0.3-0.3,0.6-0.3,1
		l1.4-0.8c0.1-0.3,0.2-0.7,0.4-1.1L48.5,15.8z M42.5,50.1L42.5,50.1L42,51.3h0.8L42.5,50.1z M32.1,25.6c0,0.1,0.1,0.2,0.1,0.3
		l15.1-8c0-0.2,0-0.5,0-0.8L32.1,25.6z M48.1,26.4c0,0-0.5,1.6-0.6,3l0.5,1.9c0,0.2,0.2,0.4,0.3,0.3c0.3-0.1,0.6-0.3,0.5-0.7l0,0
		L48.1,26.4z M53.6,20c-1.1,0-2.2-0.7-2.8-1.7c-0.8-1.5-0.4-3.4,1-4.2c0.4-0.2,0.8-0.3,1.3-0.3c1.1,0,2.2,0.7,2.8,1.7
		c0.8,1.5,0.4,3.4-1,4.2C54.5,19.9,54,20,53.6,20L53.6,20z M53.7,19L53.7,19c0.3,0,0.6-0.1,0.8-0.2c0.5-0.2,0.8-0.7,1-1.2
		c0.1-0.5,0.1-1.1-0.2-1.6c-0.4-0.7-1.1-1.2-1.9-1.2c-0.3,0-0.6,0.1-0.8,0.2c-0.5,0.2-0.8,0.7-1,1.2c-0.1,0.5-0.1,1.1,0.2,1.6
		C52.1,18.5,52.9,19,53.7,19z M29.6,64.4h-0.8l-0.2-0.7h-0.3L28,64.4h-0.8l-0.1,0.3l0.6,0.4l-0.2,0.7l0.2,0.2l0.6-0.4L29,66l0.2-0.2
		L29,65.1l0.6-0.4V64.4z M49.4,64.4h-0.8l-0.2-0.7h-0.3l-0.2,0.7h-0.8L47,64.7l0.6,0.4l-0.2,0.7l0.2,0.2l0.6-0.4l0.6,0.4l0.2-0.2
		l-0.2-0.7l0.6-0.4L49.4,64.4z M45.2,64.7h-1l-0.3-1h-0.4l-0.3,1h-1L42.1,65l0.8,0.6l-0.3,1l0.3,0.2l0.8-0.6l0.8,0.6l0.3-0.2l-0.3-1
		l0.8-0.6L45.2,64.7z M34.5,64.7h-1l-0.3-1h-0.4l-0.3,1h-1L31.4,65l0.8,0.6l-0.3,1l0.3,0.2l0.8-0.6l0.8,0.6l0.3-0.2l-0.3-1l0.8-0.6
		L34.5,64.7z M40.3,64.9H39l-0.4-1.2h-0.5l-0.4,1.2h-1.3l-0.1,0.4l1,0.7l-0.4,1.2l0.4,0.3l1-0.7l1,0.7l0.4-0.3L39.3,66l1-0.7V64.9z
		 M23.2,44.4c-0.5-1.8-1-4.6-1-8.8c0-7.9,1.5-10.9,2.5-11.7c-1.3,0-2.9,4.3-2.9,11.7c0,3.8,0.4,6.8,1,8.8H23.2z M7,44.4
		c-0.8-2.8-1.2-5.7-1.2-8.7C5.8,17.7,20.4,3,38.4,3C56.3,3,71,17.7,71,35.6c0,3-0.4,6-1.2,8.7H67c0.3-1,0.6-2.1,0.8-3.1L64.9,41
		c-0.2,1.1-0.5,2.2-0.9,3.3h-0.8c0.4-1.1,0.7-2.2,0.9-3.3H63c-0.3,1.2-0.6,2.3-1,3.4h-3.2c1.2-2.7,1.8-5.6,1.8-8.7
		c0-5.7-2.1-10.9-5.7-14.8l0.7-0.5c1-0.7,1.5-2,1.4-3.3l1.9-4l0.4-0.3l0.1-0.1l-2.9-2.3l-0.1,0.1L56.2,11l-2.8,2.1
		c-0.2,0-0.3,0-0.5,0c-0.6,0-1.2,0.1-1.7,0.4c0,0-2.6,1.5-3.1,1.8c-0.2,0.1-0.3,0.3-0.4,0.5c-2.9-1.3-6.1-2.1-9.4-2.1
		C26,13.7,16,23.7,16,36c0,3.1,0.6,6.1,1.8,8.7h-3.2c-0.4-1.1-0.7-2.1-1-3.3h-1c0.2,1.1,0.5,2.2,0.9,3.2h-0.8
		c-0.4-1-0.7-2.1-0.9-3.2L9,41.2c0.2,1.1,0.5,2.1,0.8,3.1H7V44.4z M69.4,33l-0.7,0.3l-6-0.1L62,33h-0.2l0.1,2.3h0.2l0.7-0.2l3,0.1
		h0.6l-0.6,0.2l-4,2.3l0,1.3l6.8,0.1l0.7,0.2h0.2V37h-0.2l-0.7,0.2h-2.4h-0.6l0.6-0.2l3.3-1.9v-2.3L69.4,33z M66.8,24.4l-4.7,1.3
		h-0.6l-1,1.8l1,3.5l1.8,1l0.5-0.3l4.7-1.3h0.7h0.2l-0.7-2.3h-0.2L68,28.5l-1.4,0.4l-3,0.8c-0.2,0.1-0.5,0-0.5-0.2l-0.4-1.3
		c-0.1-0.2,0.1-0.4,0.3-0.5l3-0.8l1.4-0.4h0.7h0.2L67.6,24h-0.2L66.8,24.4z M57.9,19.7l-0.5,2l1.7,2.7l2,0.5l0.4-0.4l1.4-0.9
		l0.7-0.1l0.1-0.1l-1.5-2.3L62,21.2L61.7,22l-0.9,0.6c-0.2,0.1-0.6,0.1-0.8-0.2L59.8,22c-0.2-0.3-0.1-0.7,0.2-0.9l2.2-1.3
		c0.5-0.3,1-0.1,1.2,0.3l0.7,1.2l0.3,1.2l0,0h0.2l1.7-1.2L66,20.7l-0.2-0.3l-1.7-2.7L62,17.2L57.9,19.7z M43.8,12.5l4.5,1.6l0,0
		l0.4,0.1l1-1.9l0,0l0,0l-0.1-0.1l0,0h-1l-1.7-0.6l-0.1-0.2l0.3-0.8l0.1-0.1l0.7,0.2l0.6,0.4h0.2l0.7-1.9L49.1,9l0,0h-0.7l-0.7-0.2
		l-0.1-0.1L48,7.8l0.1-0.1l1.8,0.6l0.7,0.5l0.1-0.1l0,0L51,6.9l-4.6-1.7l-0.1,0.2v0.7l-2,5.6l-0.4,0.6L43.8,12.5z M36.4,12l2.5-0.1
		v-0.2l-0.2-0.5V9.9l0.1-0.2l0.6-0.5h0.2l1,2.1l0.1,0.8l2.6,0.4v-0.2l-0.5-0.9L41,7.6l2.5-2.7l-0.2-0.2l-2.1-0.2L41,5.2l-2,2
		l-0.2,0.2V5.1l0.3-0.7V4.2h-2.6v0.2l0.2,0.7v6l-0.3,0.7V12z M32.2,4.8V5l0.3,0.7l0.9,5.9l-0.1,0.7v0.2l2.6-0.4v-0.2l-0.3-0.7
		l-0.9-5.9l0.1-0.7V4.4L32.2,4.8z M25.7,6.9L25.7,6.9l0.5,0.7l1.9,5.6v0.7l0.1,0.2l4.2-1.5l0,0l0,0l0.4-0.1l-0.4-2.1l-0.2-0.1
		l-0.8,0.6L30,11.6l-0.2-0.1L28.3,7V6.1L28.2,6L25.7,6.9z M16.7,12.8l0.1,0.1l0.6,0.4l3.7,4.7l0.3,0.7l0.1,0.1l3.7-3l0,0l0.3-0.2
		l-1.1-1.8l0,0l0,0h-0.2l0,0l-0.6,0.9l-1.4,1.2H22l-0.6-0.7V15l0.6-0.4l0.7-0.2l0.1-0.2l-1.2-1.6h-0.2l0,0L21,13.1l-0.6,0.4h-0.2
		l-0.6-0.7v-0.1l1.5-1.2l0.8-0.3V11l0,0l-1.4-1.3c0,0-0.1,0.1-0.3,0.2L16.7,12.8z M11.3,19.7l0.1,0.1l0.7,0.2l4.9,3.4l0.5,0.6
		l0.1,0.1l2.8-4L20,18l-3.8-2.6l-2.1,0.4L11.3,19.7z M8.4,27.1l0.2,0.1l0.6,0.1l5.3,3.5l0.5,0.6l0.2,0.1l0.5-2.4l-0.9-0.2l-0.3-0.3
		l-0.1-0.1l0.6-1.7l0.1-0.1h0.4l0.8,0.4l1.2-2.4l-0.2-0.1l-0.8,0.1L10.3,24l-0.5-0.3l-0.2-0.1L8.4,27.1z M7.3,39.7h0.2l0.7-0.2h6
		l0.7,0.2h0.2l-0.3-2.3h-0.2l-0.7,0.2h-3.1l-0.4,0.1l0.4-0.2l3.4-1.4v-0.8L10.7,34l-0.4-0.2l0.4,0.1h3.1l0.7,0.2h0.2l0.3-2.5h-0.2
		l-0.7,0.2h-6l-0.7-0.2H7.3v2.8l3.1,1.3l0.3,0.1l-0.3,0.1L7.3,37V39.7z M57.1,44.4c1.2-2.7,1.9-5.6,1.9-8.7c0-3.7-1-7.1-2.7-10.1
		c1.3,5,1.1,10.9,0.4,14.6h-0.4l0,0c0.1-1.4,0.2-2.9,0.2-4.5c0-5.6-1-10.4-2.4-13.1c-0.1-0.1-0.2-0.3-0.2-0.4
		c-0.1-0.1-0.1-0.2-0.2-0.3c0,0,0,0-0.1,0c-0.3,0.2-0.6,0.4-0.8,0.6c-0.3,0.2-0.7,0.3-1,0.3l0,0c1.4,2.7,2.4,7.5,2.4,13
		c0,3.3-0.3,6.3-0.9,8.8h3.8V44.4z M24.3,39c0.1,0.1,0.2,0.2,0.3,0.2c0.5,0,0.8-1.6,0.8-3.6c0-1.6-0.2-3-0.6-3.4l-0.9-5.8
		c0,0-0.5,1.6-0.6,3l0.5,1.9c0,0.2,0.2,0.4,0.3,0.3l0.2,0.6l0,0c-0.2,0.3-0.4,1-0.5,1.9l0,0l-0.9-0.6c0,0-0.1,1.4-0.1,2.1
		c0,0.7,0.1,2.1,0.1,2.1l0.2-0.2l0,0c0.3-0.3,0.3-0.9,0.3-1.3h0.3c0,1,0.2,1.9,0.4,2.4l-0.8,3.2c0.1,0.9,0.3,2,0.4,2.6h0.2l0.6-3.7
		c0.1-0.8-0.3-0.9-0.3-1.1L24.3,39L24.3,39z M50.2,38.2c-0.1,0.5-0.3,1-0.4,1.3l0.7,4.9h0.2c0.6-2.2,1.1-5.4,1.1-8.8
		c0-3.7-0.6-7-1.2-9.3v0.1L49.7,32c0.1,0.2,0.3,0.6,0.4,1l1-1.6c0.1,0.5,0.1,1.1,0.2,1.8l-0.9,0.9c0,0.4,0.1,0.8,0.1,1.3
		s0,0.9-0.1,1.3l0.9,0.9c0,0.7-0.1,1.3-0.2,1.8L50.2,38.2z M12.9,27.4l0.1-0.1l0.3-0.9l-0.1-0.1L10.8,26l-0.4-0.1l0.3,0.2L12.9,27.4
		z M17.4,21h0.2l0.4-0.6c0.3-0.5,0.3-0.8-0.2-1.2l-2.1-1.5c-0.5-0.3-0.9-0.2-1.2,0.2L14,18.6v0.2L17.4,21z M44.3,32.5h1.8l0,0h0.4
		l0,0l0,0v-0.6c0.3-3.6,0.9-5.7,1.5-6.9c-0.2,0.1-0.4,0.3-0.6,0.4c-0.6,1.3-1.1,3.5-1.4,6.4h-1.8H32.5h-0.3c-0.1-0.8-0.1-1.3-0.2-2
		v-0.1c0-0.4,0.2-0.5,0.7-0.5h1.1c0.6,0,2.1,2,4.7,2c2.8,0,4.7-2.1,4.9-2.2h1.3c0.1-0.5,0.2-1.1,0.3-1.6l0,0c-0.9,0.7-1.6,1.2-2,1.6
		c0,0-2.2,1.7-4.2,1.7c-2.7,0-3.6-2.2-5-2.2c-0.3,0-1,0-1.7,0c-0.1,0-0.2,0-0.3,0c-0.2-1.2-0.5-2.4-0.8-3.4l0,0
		c-0.9-3.1-2.3-5-3.7-5c-0.1,0-0.2,0-0.2,0v-0.4c0.1,0,0.1,0,0.2,0c2,0,3.5,2,4.5,4.9c3.9-2.1,14.4-7.8,14.8-8.1
		c-2.5-1.1-5.3-1.7-8.2-1.7c-5.3,0-10.1,2-13.7,5.2c0.1,0,0.2,0,0.3,0c2.7,0,5,6.9,5,15.4c0,3.3-0.3,6.3-0.9,8.8h2.4
		c0.4-1.6,0.6-3.4,0.8-5.4c0.1-1.1,0.1-2.2,0.1-3.4c0-1.1,0-2.1-0.1-3.1L44.3,32.5L44.3,32.5z M49.2,38.8c0.1-0.3,0.2-0.7,0.3-1.2
		l0,0l0,0c0.1-0.5,0.1-1.2,0.1-2l0,0l0,0c0-1.4-0.5-3.3-0.9-3.3c-0.3,0-0.6,0.1-0.8,0.2c1.1,0,1.1,2.7,1.1,3.2s0,2.8-0.9,3.2
		c0,0-0.2,0.1-0.3,0.1h-1.3h-1.4h-0.8H43l0,0c-1.2,0-2.1,1.7-3.1,3.9c-0.2,0.5-0.5,1-0.8,1.5H45c-0.3-1.5-0.6-3.3-0.8-5.2l1.9,0.2
		c0.2,2,0.5,3.7,0.9,4.9h0.3c-0.3-1.2-0.6-2.8-0.8-4.9l1.5,0.2l-0.5,2.1c0.1,0.9,0.3,2,0.4,2.6h0.2l0.6-3.7c0.1-0.7-0.2-0.8-0.3-1
		C48.6,39.7,48.9,39.5,49.2,38.8z M25.9,38.1c-0.1,0.5-0.3,0.8-0.4,1l0.7,5.2h0.2c0.6-2.2,1.1-5.4,1.1-8.8c0-3.7-0.6-7-1.2-9.3v0.1
		L25.4,32c0.1,0.2,0.3,0.6,0.4,1l1-1.6c0.1,0.5,0.1,1.1,0.2,1.8l-0.9,0.9c0,0.4,0.1,0.8,0.1,1.3s0,0.9-0.1,1.3l0.9,0.9
		c0,0.7-0.1,1.3-0.2,1.8L25.9,38.1z M34.7,42.3c0,0,0.6-2,1.4-3.3h-1.8l-0.1,0.2c0,0,0.7,0.1,0.8,0.2c-0.5,1-0.7,2.9-0.7,2.9
		S34.7,42.3,34.7,42.3z M17.7,35.6c0,3.1,0.7,6.1,1.9,8.7h1.3c-0.6-2.5-0.9-5.5-0.9-8.8c0-5.4,0.9-10.1,2.2-12.8
		C19.4,26.3,17.7,30.8,17.7,35.6z M12.7,53.9h-0.5l-0.3-0.1l-0.1,0.1l0.1,0.6H12l0,0l0,0h1l0.5-0.5v-0.7L13.2,53h-0.1h-0.4
		c-0.1,0-0.1-0.1-0.1-0.2c0-0.1,0.1-0.2,0.2-0.2h0.5l0.2,0.1l0.1-0.1L13.5,52h-0.1l0,0h-0.9L12,52.5v0.6l0.3,0.3
		c0,0,0.3,0.1,0.5,0.1c0.1,0,0.2,0.1,0.2,0.2C12.8,53.9,12.8,53.9,12.7,53.9z M55,54l-0.1,0.4v0.1h0.3H56h0.3v-0.1L56.2,54h-0.3
		v-1.9h-0.6l-0.4,0.5l0.1,0.1h0.3V54H55z M57.9,53.7v-0.2l-0.2,0.1h-0.6l-0.4-0.4v-0.7l0.5-0.5h1l0.5,0.5V54l-0.5,0.5H57l-0.2-0.6
		l0.1-0.1l0.4,0.1h0.4C57.8,54,57.9,53.9,57.9,53.7z M57.9,52.9L57.9,52.9c0-0.2-0.1-0.3-0.2-0.3h-0.2c-0.2,0-0.2,0.1-0.2,0.2v0.1
		c0,0.1,0.1,0.2,0.2,0.2h0.2C57.8,53.1,57.9,53,57.9,52.9z M61.7,54l-0.1,0.4v0.1h0.3h0.9h0.3v-0.1L62.9,54h-0.3v-1.9H62l-0.4,0.5
		l0.1,0.1H62V54H61.7z M59.6,52.1h1.1l0.5,0.5V54l-0.5,0.5h-1.1L59.1,54v-1.5L59.6,52.1z M59.8,53.8c0,0.1,0.1,0.2,0.2,0.2h0.2
		c0.1,0,0.2-0.1,0.2-0.2v-1c0-0.1-0.1-0.2-0.2-0.2H60c-0.1,0-0.2,0.1-0.2,0.2V53.8z M14,54.4L14,54.4l0.9,0.1v-0.1l-0.1-0.2v-1.9
		l0.1-0.2V52H14v0.1l0.1,0.2v1.9L14,54.4z M71.3,46l0.8-0.2l-0.5,0.6l-3.5,4.8H52.5l1.1,4.3h13.3L66.4,56H53.7l0.2,0.8h10l-4.4,6
		h-7.7L51,62.1H25.7L25,62.9h-7.7l-4.4-6h10L23,56H10.3l-0.4-0.6h13.3l1.1-4.3H8.6l-3.5-4.8l-0.5-0.6L5.5,46H71.3z M45.4,53.1h3.1
		l0.1-1l0,0c-0.2,0.1-0.5,0.1-1,0.1c-0.2,0-0.5,0-0.7-0.1v-2.5c0-0.5,0-0.6,0.1-1l0,0h-1.7l0,0c0.1,0.2,0.1,0.4,0.1,0.9V52
		C45.5,52.6,45.5,52.8,45.4,53.1L45.4,53.1z M41.9,49c0,0.2-0.1,0.5-0.1,0.6l-0.9,2.7c-0.1,0.3-0.1,0.4-0.4,0.8l0,0h1.2l0,0
		c-0.1-0.1-0.1-0.2-0.1-0.3c0-0.2,0.1-0.4,0.1-0.5l0.1-0.2h1.3c0,0,0.1,0.2,0.1,0.4c0,0.1,0.1,0.3,0.1,0.3c0,0.1,0,0.2-0.1,0.3l0,0
		H45l0,0c-0.2-0.2-0.3-0.5-0.4-0.9l-1.3-3.5h-1.5l0,0C41.9,48.8,41.9,48.9,41.9,49z M27.8,47.7c0.1,0.2,0.1,0.6,0.1,1.1v3.4
		c0,0.4,0,0.7-0.1,0.9l0,0h1.8l0,0c-0.1-0.3-0.1-0.6-0.1-0.9c0-0.5,0-0.9,0-0.9h0.2c1.2,1.8,2.6,2.5,4.1,2.5c2.2,0,3.4-1.4,3.4-2.9
		c0-1.3-1-2.3-2.4-2.3s-2.3,0.9-2.3,2.1c0,1.8,1.9,2,2.5,1.4l-0.1-0.2c-0.6,0.1-1.1-0.3-1.1-1.3c0-0.8,0.4-1.3,1-1.3
		c0.7,0,1.1,0.7,1.1,1.6c0,1.1-0.6,1.9-1.8,1.9c-1.3,0-2.4-1.1-3-2.1c0.7-0.3,1.1-0.8,1.1-1.5c0-0.9-0.7-1.6-2-1.6L27.8,47.7
		L27.8,47.7z M32.3,59.1c-0.1-0.1-0.3-0.3-0.6-0.6h-0.1c-1.3,0-1.9,0.5-3.2,0.5c-0.5,0-0.9-0.1-0.9-0.1v-1.2h0.3c0.6,0,0.9,0,1,0.1
		l0,0v-1l0,0c-0.1,0-0.3,0.1-1,0.1h-0.3v-1.3h0.8c0.4,0,0.6,0,0.9,0.1l0,0l-0.1-1h-3.2l0,0c0.1,0.2,0.1,0.6,0.1,1.1v3
		c0,0.4,0,0.7-0.1,0.9l0,0c0,0,0.7,0.3,1.8,0.3c2.2,0,2.6-1,4.4-1C32.2,59.1,32.2,59.1,32.3,59.1z M34.1,54.7h-0.4h-0.9l0,0
		c0.1,0.2,0.1,0.4,0.1,0.9v1.5l0,0l-2-2.4h-0.4h-0.9l0,0c0.1,0.2,0.1,0.4,0.1,0.9V58v0.3c0.3-0.1,0.7-0.2,1.1-0.2v-1.3l0,0
		c0,0,1.2,1.4,1.5,1.6c0.3,0.3,0.6,0.6,0.8,0.7h0.6H34h0.1l0,0C34,58.9,34,58.7,34,58.4v-2.8C34,55.1,34,54.9,34.1,54.7L34.1,54.7z
		 M37.8,55.6l-0.1-0.9h-3l0,0c0.1,0.2,0.1,0.4,0.1,0.9v2.5c0,0.4,0,0.7-0.1,0.9l0,0h1.7l0,0c-0.1-0.2-0.2-0.5-0.2-1v-0.2v-0.5h0.1
		c0.5,0,0.8,0,0.9,0.1l0,0v-0.9l0,0c-0.1,0-0.3,0.1-0.9,0.1h-0.1l0,0v-0.4v-0.7h0.6C37.3,55.4,37.5,55.5,37.8,55.6L37.8,55.6z
		 M39.9,54.7h-1.7l0,0c0.1,0.2,0.1,0.4,0.1,0.9v2.5c0,0.4,0,0.7-0.1,0.9l0,0h1.7l0,0c-0.1-0.3-0.1-0.5-0.1-0.9v-2.5
		C39.7,55.1,39.8,54.9,39.9,54.7L39.9,54.7z M39.9,53.1c-0.1-0.2-0.2-0.6-0.2-1v-0.8l0.1-0.2l1.2-2.4l0,0h-1.2l0,0
		c0,0.1,0.1,0.1,0.1,0.3s-0.1,0.4-0.2,0.5c0,0.1-0.2,0.3-0.2,0.5c0,0.1-0.2,0.5-0.2,0.5l-0.9-1.8l0,0h-1.5l0,0
		c0.2,0.2,0.3,0.3,0.4,0.5l0.8,1.6l0.2,0.5v0.2v0.7c0,0.4,0,0.7-0.1,1l0,0L39.9,53.1L39.9,53.1z M43.6,58.2L43.6,58.2
		c-0.3,0.1-0.5,0.1-1,0.1c-0.2,0-0.4,0-0.6,0v-1h0.1c0.5,0,0.8,0,0.9,0.1l0,0v-0.9l0,0c-0.1,0-0.3,0.1-0.9,0.1H42l0,0l0,0v-1h0.6
		c0.4,0,0.7,0.1,0.9,0.1l0,0l-0.1-0.9h-3l0,0c0.1,0.2,0.1,0.4,0.1,0.9v2.5c0,0.4,0,0.7-0.1,0.9l0,0h1h2L43.6,58.2z M51.6,57.2
		c0-1.5-1.2-2.5-2.9-2.5h-2l0,0c0.1,0.2,0.1,0.4,0.1,0.9c0,0,0,2.2,0,2.4c0.4,0.1,1,0.4,1.4,0.4v-3c0.2,0,0.3,0,0.4,0
		c0.9,0,1.3,0.7,1.3,1.6c0,1.2-0.6,1.9-1.6,1.9c-0.9,0-1.7-0.6-2.8-0.6v-1.5v-1.2c0-0.4,0-0.7,0.1-1l0,0H44l0,0
		c0.1,0.2,0.1,0.4,0.1,0.9V58c0,0.4,0,0.7-0.1,0.9l0,0h0.7l0,0c1.8,0,2.6,1,4,1C50.4,60.1,51.6,58.9,51.6,57.2z M75.1,46l-3.3,4.6
		l0.6,0.6l-5,6.7h-1.1l-5.6,7.6H57c-5.6,3.5-12,5.3-18.6,5.3s-13-1.8-18.6-5.3H16l-5.6-7.6H9.3l-5-6.7L5,50.5L1.6,46v-2.2l2.2-1.3
		c-0.4-2.2-0.7-4.5-0.7-6.8C3.2,16.2,19,0.4,38.4,0.4s35.2,15.8,35.2,35.2c0,2.3-0.2,4.6-0.7,6.8l2.2,1.3C75.1,43.7,75.1,46,75.1,46
		z M74.1,44.4L71.7,43c0.5-2.4,0.8-4.8,0.8-7.3c0-18.8-15.3-34.2-34.2-34.2C19.5,1.5,4.2,16.8,4.2,35.6c0,2.5,0.3,5,0.8,7.3
		l-2.3,1.4v1.2l3.6,4.9L5.7,51l0,0l0,0l4.2,5.7H11l5.6,7.6H20c5.3,3.4,11.6,5.3,18.3,5.3s13-2,18.3-5.3h3.6l5.6-7.6h1.1l4.2-5.7l0,0
		l0,0l-0.6-0.6l3.6-4.9C74.1,45.5,74.1,44.4,74.1,44.4z M20.4,54.4L20.4,54.4l1.5,0.1l0.2-0.6L22,53.8l-0.3,0.1h-0.6L21,53.8v-0.3
		l0,0h0.2l0.2,0.1l0.1-0.1V53h0.1h-0.2h-0.2l0,0v-0.4l0,0h0.6l0.2,0.1l0.1-0.1L21.9,52h-1.5v0.1l0.1,0.2v1.9L20.4,54.4z M15.5,54.4
		L15.5,54.4l0.8,0.1v-0.1l-0.1-0.2v-1V53l0.1,0.2l0.8,1.3h0.5v-2.2l0.1-0.2V52h-0.8v0.1l0.1,0.2v0.8v0.2l-0.1-0.2l-0.6-1h-0.8v0.1
		l0.1,0.2v1.9L15.5,54.4z M19.2,52.6h0.2l0.3,0.1l0.1-0.1L19.6,52h-0.9l-0.5,0.5V54l0.5,0.5h1l0.2-0.6l0,0l-0.1-0.1l-0.3,0.1h-0.2
		c-0.2,0-0.3-0.1-0.3-0.3v-0.7C18.9,52.7,19,52.6,19.2,52.6z M30.7,49.4c0-0.5-0.2-0.9-0.8-0.9h-0.5v2c0,0,0.2,0,0.3,0
		C30.3,50.5,30.7,50,30.7,49.4z"/>
</g>
</svg>
